<?xml version="1.0" encoding="UTF-8" standalone="no"?>
<!DOCTYPE svg PUBLIC "-//W3C//DTD SVG 1.1//EN"
 "http://www.w3.org/Graphics/SVG/1.1/DTD/svg11.dtd">
<!-- Generated by graphviz version 2.47.3 (20210619.1520)
 -->
<!-- Title: dependencies Pages: 1 -->
<svg width="945pt" height="247pt"
 viewBox="0.00 0.00 945.00 246.80" xmlns="http://www.w3.org/2000/svg" xmlns:xlink="http://www.w3.org/1999/xlink">
<g id="graph0" class="graph" transform="scale(1 1) rotate(0) translate(4 242.8)">
<title>dependencies</title>
<polygon fill="white" stroke="transparent" points="-4,4 -4,-242.8 941,-242.8 941,4 -4,4"/>
<text text-anchor="middle" x="468.5" y="-8.2" font-family="sans-serif" font-size="14.00">dependencies</text>
<g id="clust1" class="cluster">
<title>cluster_AppModule</title>
<polygon fill="none" stroke="black" stroke-dasharray="1,5" points="8,-32.8 8,-230.8 929,-230.8 929,-32.8 8,-32.8"/>
</g>
<g id="clust7" class="cluster">
<title>cluster_AppModule_bootstrap</title>
<polygon fill="none" stroke="black" points="354,-170.8 354,-222.8 478,-222.8 478,-170.8 354,-170.8"/>
</g>
<g id="clust8" class="cluster">
<title>cluster_AppModule_providers</title>
<polygon fill="none" stroke="black" points="763,-40.8 763,-92.8 921,-92.8 921,-40.8 763,-40.8"/>
</g>
<g id="clust5" class="cluster">
<title>cluster_AppModule_imports</title>
<polygon fill="none" stroke="black" points="235,-40.8 235,-92.8 755,-92.8 755,-40.8 235,-40.8"/>
</g>
<g id="clust2" class="cluster">
<title>cluster_AppModule_declarations</title>
<polygon fill="none" stroke="black" points="16,-40.8 16,-92.8 227,-92.8 227,-40.8 16,-40.8"/>
</g>
<!-- AppComponent -->
<g id="node1" class="node">
<title>AppComponent</title>
<polygon fill="#ffffb3" stroke="black" points="218.94,-84.8 113.06,-84.8 113.06,-48.8 218.94,-48.8 218.94,-84.8"/>
<text text-anchor="middle" x="166" y="-62.6" font-family="Times,serif" font-size="14.00">AppComponent</text>
</g>
<!-- AppModule -->
<g id="node3" class="node">
<title>AppModule</title>
<polygon fill="#8dd3c7" stroke="black" points="457.66,-149.8 454.66,-153.8 433.66,-153.8 430.66,-149.8 374.34,-149.8 374.34,-113.8 457.66,-113.8 457.66,-149.8"/>
<text text-anchor="middle" x="416" y="-127.6" font-family="Times,serif" font-size="14.00">AppModule</text>
</g>
<!-- AppComponent&#45;&gt;AppModule -->
<g id="edge1" class="edge">
<title>AppComponent&#45;&gt;AppModule</title>
<path fill="none" stroke="black" d="M166,-84.91C166,-104.14 166,-131.8 166,-131.8 166,-131.8 364.16,-131.8 364.16,-131.8"/>
<polygon fill="black" stroke="black" points="364.16,-135.3 374.16,-131.8 364.16,-128.3 364.16,-135.3"/>
</g>
<!-- FilterPipe -->
<g id="node2" class="node">
<title>FilterPipe</title>
<polygon fill="#ffffb3" stroke="black" points="95.72,-84.8 24.28,-84.8 24.28,-48.8 95.72,-48.8 95.72,-84.8"/>
<text text-anchor="middle" x="60" y="-62.6" font-family="Times,serif" font-size="14.00">FilterPipe</text>
</g>
<!-- FilterPipe&#45;&gt;AppModule -->
<g id="edge2" class="edge">
<title>FilterPipe&#45;&gt;AppModule</title>
<path fill="none" stroke="black" d="M60,-85.09C60,-107.01 60,-140.8 60,-140.8 60,-140.8 364.12,-140.8 364.12,-140.8"/>
<polygon fill="black" stroke="black" points="364.12,-144.3 374.12,-140.8 364.12,-137.3 364.12,-144.3"/>
</g>
<!-- AppComponent  -->
<g id="node8" class="node">
<title>AppComponent </title>
<polygon fill="#80b1d3" stroke="black" points="470.44,-214.8 361.56,-214.8 361.56,-178.8 470.44,-178.8 470.44,-214.8"/>
<text text-anchor="middle" x="416" y="-192.6" font-family="Times,serif" font-size="14.00">AppComponent </text>
</g>
<!-- AppModule&#45;&gt;AppComponent  -->
<g id="edge7" class="edge">
<title>AppModule&#45;&gt;AppComponent </title>
<path fill="none" stroke="black" stroke-dasharray="1,5" d="M416,-149.91C416,-149.91 416,-168.79 416,-168.79"/>
<polygon fill="black" stroke="black" points="412.5,-168.79 416,-178.79 419.5,-168.79 412.5,-168.79"/>
</g>
<!-- BrowserModule -->
<g id="node4" class="node">
<title>BrowserModule</title>
<polygon fill="#8dd3c7" stroke="black" points="747.47,-84.8 744.47,-88.8 723.47,-88.8 720.47,-84.8 640.53,-84.8 640.53,-48.8 747.47,-48.8 747.47,-84.8"/>
<text text-anchor="middle" x="694" y="-62.6" font-family="Times,serif" font-size="14.00">BrowserModule</text>
</g>
<!-- BrowserModule&#45;&gt;AppModule -->
<g id="edge3" class="edge">
<title>BrowserModule&#45;&gt;AppModule</title>
<path fill="none" stroke="black" d="M694,-84.91C694,-104.14 694,-131.8 694,-131.8 694,-131.8 467.92,-131.8 467.92,-131.8"/>
<polygon fill="black" stroke="black" points="467.92,-128.3 457.92,-131.8 467.92,-135.3 467.92,-128.3"/>
</g>
<!-- AppRoutingModule -->
<g id="node5" class="node">
<title>AppRoutingModule</title>
<polygon fill="#8dd3c7" stroke="black" points="622.27,-84.8 619.27,-88.8 598.27,-88.8 595.27,-84.8 493.73,-84.8 493.73,-48.8 622.27,-48.8 622.27,-84.8"/>
<text text-anchor="middle" x="558" y="-62.6" font-family="Times,serif" font-size="14.00">AppRoutingModule</text>
</g>
<!-- AppRoutingModule&#45;&gt;AppModule -->
<g id="edge4" class="edge">
<title>AppRoutingModule&#45;&gt;AppModule</title>
<path fill="none" stroke="black" d="M558,-84.83C558,-101.2 558,-122.8 558,-122.8 558,-122.8 467.84,-122.8 467.84,-122.8"/>
<polygon fill="black" stroke="black" points="467.84,-119.3 457.84,-122.8 467.84,-126.3 467.84,-119.3"/>
</g>
<!-- HttpClientModule -->
<g id="node6" class="node">
<title>HttpClientModule</title>
<polygon fill="#8dd3c7" stroke="black" points="475.16,-84.8 472.16,-88.8 451.16,-88.8 448.16,-84.8 356.84,-84.8 356.84,-48.8 475.16,-48.8 475.16,-84.8"/>
<text text-anchor="middle" x="416" y="-62.6" font-family="Times,serif" font-size="14.00">HttpClientModule</text>
</g>
<!-- HttpClientModule&#45;&gt;AppModule -->
<g id="edge5" class="edge">
<title>HttpClientModule&#45;&gt;AppModule</title>
<path fill="none" stroke="black" d="M416,-84.91C416,-84.91 416,-103.79 416,-103.79"/>
<polygon fill="black" stroke="black" points="412.5,-103.79 416,-113.79 419.5,-103.79 412.5,-103.79"/>
</g>
<!-- FormsModule -->
<g id="node7" class="node">
<title>FormsModule</title>
<polygon fill="#8dd3c7" stroke="black" points="338.83,-84.8 335.83,-88.8 314.83,-88.8 311.83,-84.8 243.17,-84.8 243.17,-48.8 338.83,-48.8 338.83,-84.8"/>
<text text-anchor="middle" x="291" y="-62.6" font-family="Times,serif" font-size="14.00">FormsModule</text>
</g>
<!-- FormsModule&#45;&gt;AppModule -->
<g id="edge6" class="edge">
<title>FormsModule&#45;&gt;AppModule</title>
<path fill="none" stroke="black" d="M291,-84.83C291,-101.2 291,-122.8 291,-122.8 291,-122.8 364.03,-122.8 364.03,-122.8"/>
<polygon fill="black" stroke="black" points="364.03,-126.3 374.03,-122.8 364.03,-119.3 364.03,-126.3"/>
</g>
<!-- myDataService -->
<g id="node9" class="node">
<title>myDataService</title>
<ellipse fill="#fdb462" stroke="black" cx="842" cy="-66.8" rx="70.62" ry="18"/>
<text text-anchor="middle" x="842" y="-62.6" font-family="Times,serif" font-size="14.00">myDataService</text>
</g>
<!-- myDataService&#45;&gt;AppModule -->
<g id="edge8" class="edge">
<title>myDataService&#45;&gt;AppModule</title>
<path fill="none" stroke="black" d="M842,-85.09C842,-107.01 842,-140.8 842,-140.8 842,-140.8 468.01,-140.8 468.01,-140.8"/>
<polygon fill="black" stroke="black" points="468.01,-137.3 458.01,-140.8 468.01,-144.3 468.01,-137.3"/>
</g>
</g>
</svg>
