<?xml version="1.0" encoding="UTF-8" standalone="no"?>
<!DOCTYPE svg PUBLIC "-//W3C//DTD SVG 1.1//EN"
 "http://www.w3.org/Graphics/SVG/1.1/DTD/svg11.dtd">
<!-- Generated by graphviz version 2.47.3 (20210619.1520)
 -->
<!-- Title: dependencies Pages: 1 -->
<svg width="1288pt" height="253pt"
 viewBox="0.00 0.00 1288.00 252.80" xmlns="http://www.w3.org/2000/svg" xmlns:xlink="http://www.w3.org/1999/xlink">
<g id="graph0" class="graph" transform="scale(1 1) rotate(0) translate(4 248.8)">
<title>dependencies</title>
<polygon fill="white" stroke="transparent" points="-4,4 -4,-248.8 1284,-248.8 1284,4 -4,4"/>
<text text-anchor="middle" x="640" y="-8.2" font-family="sans-serif" font-size="14.00">dependencies</text>
<g id="clust1" class="cluster">
<title>cluster_AppModule</title>
<polygon fill="none" stroke="black" stroke-dasharray="1,5" points="8,-32.8 8,-236.8 928,-236.8 928,-32.8 8,-32.8"/>
</g>
<g id="clust2" class="cluster">
<title>cluster_AppModule_declarations</title>
<polygon fill="none" stroke="black" points="182,-40.8 182,-92.8 393,-92.8 393,-40.8 182,-40.8"/>
</g>
<g id="clust5" class="cluster">
<title>cluster_AppModule_imports</title>
<polygon fill="none" stroke="black" points="401,-40.8 401,-92.8 920,-92.8 920,-40.8 401,-40.8"/>
</g>
<g id="clust7" class="cluster">
<title>cluster_AppModule_bootstrap</title>
<polygon fill="none" stroke="black" points="406,-176.8 406,-228.8 530,-228.8 530,-176.8 406,-176.8"/>
</g>
<g id="clust8" class="cluster">
<title>cluster_AppModule_providers</title>
<polygon fill="none" stroke="black" points="16,-40.8 16,-92.8 174,-92.8 174,-40.8 16,-40.8"/>
</g>
<g id="clust9" class="cluster">
<title>cluster_AppRoutingModule</title>
<polygon fill="none" stroke="black" stroke-dasharray="1,5" points="936,-100.8 936,-168.8 1272,-168.8 1272,-100.8 936,-100.8"/>
</g>
<g id="clust11" class="cluster">
<title>cluster_AppRoutingModule_imports</title>
<polygon fill="none" stroke="black" points="1070,-108.8 1070,-160.8 1264,-160.8 1264,-108.8 1070,-108.8"/>
</g>
<g id="clust12" class="cluster">
<title>cluster_AppRoutingModule_exports</title>
<polygon fill="none" stroke="black" points="944,-108.8 944,-160.8 1062,-160.8 1062,-108.8 944,-108.8"/>
</g>
<!-- AppComponent -->
<g id="node1" class="node">
<title>AppComponent</title>
<polygon fill="#ffffb3" stroke="black" points="384.94,-84.8 279.06,-84.8 279.06,-48.8 384.94,-48.8 384.94,-84.8"/>
<text text-anchor="middle" x="332" y="-62.6" font-family="Times,serif" font-size="14.00">AppComponent</text>
</g>
<!-- AppModule -->
<g id="node3" class="node">
<title>AppModule</title>
<polygon fill="#8dd3c7" stroke="black" points="509.66,-152.8 506.66,-156.8 485.66,-156.8 482.66,-152.8 426.34,-152.8 426.34,-116.8 509.66,-116.8 509.66,-152.8"/>
<text text-anchor="middle" x="468" y="-130.6" font-family="Times,serif" font-size="14.00">AppModule</text>
</g>
<!-- AppComponent&#45;&gt;AppModule -->
<g id="edge1" class="edge">
<title>AppComponent&#45;&gt;AppModule</title>
<path fill="none" stroke="black" d="M332,-84.82C332,-102.17 332,-125.8 332,-125.8 332,-125.8 416.09,-125.8 416.09,-125.8"/>
<polygon fill="black" stroke="black" points="416.09,-129.3 426.09,-125.8 416.09,-122.3 416.09,-129.3"/>
</g>
<!-- FilterPipe -->
<g id="node2" class="node">
<title>FilterPipe</title>
<polygon fill="#ffffb3" stroke="black" points="261.72,-84.8 190.28,-84.8 190.28,-48.8 261.72,-48.8 261.72,-84.8"/>
<text text-anchor="middle" x="226" y="-62.6" font-family="Times,serif" font-size="14.00">FilterPipe</text>
</g>
<!-- FilterPipe&#45;&gt;AppModule -->
<g id="edge2" class="edge">
<title>FilterPipe&#45;&gt;AppModule</title>
<path fill="none" stroke="black" d="M226,-85.02C226,-105.17 226,-134.8 226,-134.8 226,-134.8 416.12,-134.8 416.12,-134.8"/>
<polygon fill="black" stroke="black" points="416.12,-138.3 426.12,-134.8 416.12,-131.3 416.12,-138.3"/>
</g>
<!-- AppComponent  -->
<g id="node8" class="node">
<title>AppComponent </title>
<polygon fill="#80b1d3" stroke="black" points="522.44,-220.8 413.56,-220.8 413.56,-184.8 522.44,-184.8 522.44,-220.8"/>
<text text-anchor="middle" x="468" y="-198.6" font-family="Times,serif" font-size="14.00">AppComponent </text>
</g>
<!-- AppModule&#45;&gt;AppComponent  -->
<g id="edge7" class="edge">
<title>AppModule&#45;&gt;AppComponent </title>
<path fill="none" stroke="black" stroke-dasharray="1,5" d="M468,-153.02C468,-153.02 468,-174.53 468,-174.53"/>
<polygon fill="black" stroke="black" points="464.5,-174.53 468,-184.53 471.5,-174.53 464.5,-174.53"/>
</g>
<!-- BrowserModule -->
<g id="node4" class="node">
<title>BrowserModule</title>
<polygon fill="#8dd3c7" stroke="black" points="765.47,-84.8 762.47,-88.8 741.47,-88.8 738.47,-84.8 658.53,-84.8 658.53,-48.8 765.47,-48.8 765.47,-84.8"/>
<text text-anchor="middle" x="712" y="-62.6" font-family="Times,serif" font-size="14.00">BrowserModule</text>
</g>
<!-- BrowserModule&#45;&gt;AppModule -->
<g id="edge3" class="edge">
<title>BrowserModule&#45;&gt;AppModule</title>
<path fill="none" stroke="black" d="M712,-85.02C712,-105.17 712,-134.8 712,-134.8 712,-134.8 519.67,-134.8 519.67,-134.8"/>
<polygon fill="black" stroke="black" points="519.67,-131.3 509.67,-134.8 519.67,-138.3 519.67,-131.3"/>
</g>
<!-- AppRoutingModule -->
<g id="node5" class="node">
<title>AppRoutingModule</title>
<polygon fill="#8dd3c7" stroke="black" points="912.27,-84.8 909.27,-88.8 888.27,-88.8 885.27,-84.8 783.73,-84.8 783.73,-48.8 912.27,-48.8 912.27,-84.8"/>
<text text-anchor="middle" x="848" y="-62.6" font-family="Times,serif" font-size="14.00">AppRoutingModule</text>
</g>
<!-- AppRoutingModule&#45;&gt;AppModule -->
<g id="edge4" class="edge">
<title>AppRoutingModule&#45;&gt;AppModule</title>
<path fill="none" stroke="black" d="M848,-85.05C848,-107.82 848,-143.8 848,-143.8 848,-143.8 519.75,-143.8 519.75,-143.8"/>
<polygon fill="black" stroke="black" points="519.75,-140.3 509.75,-143.8 519.75,-147.3 519.75,-140.3"/>
</g>
<!-- RouterModule  -->
<g id="node11" class="node">
<title>RouterModule </title>
<polygon fill="#fb8072" stroke="black" points="1053.65,-152.8 952.35,-152.8 952.35,-116.8 1053.65,-116.8 1053.65,-152.8"/>
<text text-anchor="middle" x="1003" y="-130.6" font-family="Times,serif" font-size="14.00">RouterModule </text>
</g>
<!-- AppRoutingModule&#45;&gt;RouterModule  -->
<g id="edge10" class="edge">
<title>AppRoutingModule&#45;&gt;RouterModule </title>
<path fill="none" stroke="black" stroke-dasharray="5,2" d="M912.39,-72.8C954.97,-72.8 1003,-72.8 1003,-72.8 1003,-72.8 1003,-106.53 1003,-106.53"/>
<polygon fill="black" stroke="black" points="999.5,-106.53 1003,-116.53 1006.5,-106.53 999.5,-106.53"/>
</g>
<!-- HttpClientModule -->
<g id="node6" class="node">
<title>HttpClientModule</title>
<polygon fill="#8dd3c7" stroke="black" points="527.16,-84.8 524.16,-88.8 503.16,-88.8 500.16,-84.8 408.84,-84.8 408.84,-48.8 527.16,-48.8 527.16,-84.8"/>
<text text-anchor="middle" x="468" y="-62.6" font-family="Times,serif" font-size="14.00">HttpClientModule</text>
</g>
<!-- HttpClientModule&#45;&gt;AppModule -->
<g id="edge5" class="edge">
<title>HttpClientModule&#45;&gt;AppModule</title>
<path fill="none" stroke="black" d="M468,-85.02C468,-85.02 468,-106.53 468,-106.53"/>
<polygon fill="black" stroke="black" points="464.5,-106.53 468,-116.53 471.5,-106.53 464.5,-106.53"/>
</g>
<!-- FormsModule -->
<g id="node7" class="node">
<title>FormsModule</title>
<polygon fill="#8dd3c7" stroke="black" points="640.83,-84.8 637.83,-88.8 616.83,-88.8 613.83,-84.8 545.17,-84.8 545.17,-48.8 640.83,-48.8 640.83,-84.8"/>
<text text-anchor="middle" x="593" y="-62.6" font-family="Times,serif" font-size="14.00">FormsModule</text>
</g>
<!-- FormsModule&#45;&gt;AppModule -->
<g id="edge6" class="edge">
<title>FormsModule&#45;&gt;AppModule</title>
<path fill="none" stroke="black" d="M593,-84.82C593,-102.17 593,-125.8 593,-125.8 593,-125.8 519.97,-125.8 519.97,-125.8"/>
<polygon fill="black" stroke="black" points="519.97,-122.3 509.97,-125.8 519.97,-129.3 519.97,-122.3"/>
</g>
<!-- myDataService -->
<g id="node9" class="node">
<title>myDataService</title>
<ellipse fill="#fdb462" stroke="black" cx="95" cy="-66.8" rx="70.62" ry="18"/>
<text text-anchor="middle" x="95" y="-62.6" font-family="Times,serif" font-size="14.00">myDataService</text>
</g>
<!-- myDataService&#45;&gt;AppModule -->
<g id="edge8" class="edge">
<title>myDataService&#45;&gt;AppModule</title>
<path fill="none" stroke="black" d="M95,-85.05C95,-107.82 95,-143.8 95,-143.8 95,-143.8 416.3,-143.8 416.3,-143.8"/>
<polygon fill="black" stroke="black" points="416.3,-147.3 426.3,-143.8 416.3,-140.3 416.3,-147.3"/>
</g>
<!-- RouterModule.forRoot(args) -->
<g id="node10" class="node">
<title>RouterModule.forRoot(args)</title>
<polygon fill="#8dd3c7" stroke="black" points="1255.84,-152.8 1252.84,-156.8 1231.84,-156.8 1228.84,-152.8 1078.16,-152.8 1078.16,-116.8 1255.84,-116.8 1255.84,-152.8"/>
<text text-anchor="middle" x="1167" y="-130.6" font-family="Times,serif" font-size="14.00">RouterModule.forRoot(args)</text>
</g>
<!-- RouterModule.forRoot(args)&#45;&gt;AppRoutingModule -->
<g id="edge9" class="edge">
<title>RouterModule.forRoot(args)&#45;&gt;AppRoutingModule</title>
<path fill="none" stroke="black" d="M1167,-116.51C1167,-94.59 1167,-60.8 1167,-60.8 1167,-60.8 922.55,-60.8 922.55,-60.8"/>
<polygon fill="black" stroke="black" points="922.55,-57.3 912.55,-60.8 922.55,-64.3 922.55,-57.3"/>
</g>
</g>
</svg>
